<?xml version="1.0" encoding="utf-8" standalone="no"?>
<!DOCTYPE svg PUBLIC "-//W3C//DTD SVG 1.1//EN"
  "http://www.w3.org/Graphics/SVG/1.1/DTD/svg11.dtd">
<svg xmlns:xlink="http://www.w3.org/1999/xlink" width="619.2pt" height="460.8pt" viewBox="0 0 619.2 460.8" xmlns="http://www.w3.org/2000/svg" version="1.1">
 <metadata>
  <rdf:RDF xmlns:dc="http://purl.org/dc/elements/1.1/" xmlns:cc="http://creativecommons.org/ns#" xmlns:rdf="http://www.w3.org/1999/02/22-rdf-syntax-ns#">
   <cc:Work>
    <dc:type rdf:resource="http://purl.org/dc/dcmitype/StillImage"/>
    <dc:format>image/svg+xml</dc:format>
    <dc:creator>
     <cc:Agent>
      <dc:title>QuickMaths</dc:title>
     </cc:Agent>
    </dc:creator>
   </cc:Work>
  </rdf:RDF>
 </metadata>
 <defs>
  <style type="text/css">*{stroke-linejoin: round; stroke-linecap: butt}</style>
 </defs>
 <g id="figure_1">
  <g id="patch_1">
   <path d="M 0 460.8
L 619.2 460.8
L 619.2 0
L 0 0
z
" style="fill: #fffdf8"/>
  </g>
  <g id="axes_1">
   <g id="patch_2">
    <path d="M 74.304 396.288
L 588.24 396.288
L 588.24 50.688
L 74.304 50.688
z
" style="fill: #fffdf8"/>
   </g>
   <g id="PathCollection_1">
    <defs>
     <path id="macc71aaead" d="M 0 4.330127
C 1.148363 4.330127 2.249847 3.873878 3.061862 3.061862
C 3.873878 2.249847 4.330127 1.148363 4.330127 0
C 4.330127 -1.148363 3.873878 -2.249847 3.061862 -3.061862
C 2.249847 -3.873878 1.148363 -4.330127 0 -4.330127
C -1.148363 -4.330127 -2.249847 -3.873878 -3.061862 -3.061862
C -3.873878 -2.249847 -4.330127 -1.148363 -4.330127 0
C -4.330127 1.148363 -3.873878 2.249847 -3.061862 3.061862
C -2.249847 3.873878 -1.148363 4.330127 0 4.330127
z
" style="stroke: #bc503b"/>
    </defs>
    <g clip-path="url(#p576bd2a587)">
     <use xlink:href="#macc71aaead" x="267.03" y="333.451636" style="fill: #bc503b; stroke: #bc503b"/>
     <use xlink:href="#macc71aaead" x="459.756" y="333.451636" style="fill: #bc503b; stroke: #bc503b"/>
    </g>
   </g>
   <g id="matplotlib.axis_1">
    <g id="xtick_1">
     <g id="line2d_1">
      <path d="M 74.304 396.288
L 74.304 50.688
" clip-path="url(#p576bd2a587)" style="fill: none; stroke: #dce5dd; stroke-width: 0.7; stroke-linecap: square"/>
     </g>
     <g id="line2d_2">
      <defs>
       <path id="m6ece25698d" d="M 0 0
L 0 3.5
" style="stroke: #728c80; stroke-width: 0.8"/>
      </defs>
      <g>
       <use xlink:href="#m6ece25698d" x="74.304" y="396.288" style="fill: #728c80; stroke: #728c80; stroke-width: 0.8"/>
      </g>
     </g>
     <g id="text_1">
      <text style="font-size: 15px; font-family: 'DejaVu Sans'; text-anchor: middle; fill: #728c80" x="74.304" y="414.685656" transform="rotate(-0 74.304 414.685656)">−1</text>
     </g>
    </g>
    <g id="xtick_2">
     <g id="line2d_3">
      <path d="M 138.546 396.288
L 138.546 50.688
" clip-path="url(#p576bd2a587)" style="fill: none; stroke: #dce5dd; stroke-width: 0.7; stroke-linecap: square"/>
     </g>
     <g id="line2d_4">
      <g>
       <use xlink:href="#m6ece25698d" x="138.546" y="396.288" style="fill: #728c80; stroke: #728c80; stroke-width: 0.8"/>
      </g>
     </g>
     <g id="text_2">
      <text style="font-size: 15px; font-family: 'DejaVu Sans'; text-anchor: middle; fill: #728c80" x="138.546" y="414.685656" transform="rotate(-0 138.546 414.685656)">0</text>
     </g>
    </g>
    <g id="xtick_3">
     <g id="line2d_5">
      <path d="M 202.788 396.288
L 202.788 50.688
" clip-path="url(#p576bd2a587)" style="fill: none; stroke: #dce5dd; stroke-width: 0.7; stroke-linecap: square"/>
     </g>
     <g id="line2d_6">
      <g>
       <use xlink:href="#m6ece25698d" x="202.788" y="396.288" style="fill: #728c80; stroke: #728c80; stroke-width: 0.8"/>
      </g>
     </g>
     <g id="text_3">
      <text style="font-size: 15px; font-family: 'DejaVu Sans'; text-anchor: middle; fill: #728c80" x="202.788" y="414.685656" transform="rotate(-0 202.788 414.685656)">1</text>
     </g>
    </g>
    <g id="xtick_4">
     <g id="line2d_7">
      <path d="M 267.03 396.288
L 267.03 50.688
" clip-path="url(#p576bd2a587)" style="fill: none; stroke: #dce5dd; stroke-width: 0.7; stroke-linecap: square"/>
     </g>
     <g id="line2d_8">
      <g>
       <use xlink:href="#m6ece25698d" x="267.03" y="396.288" style="fill: #728c80; stroke: #728c80; stroke-width: 0.8"/>
      </g>
     </g>
     <g id="text_4">
      <text style="font-size: 15px; font-family: 'DejaVu Sans'; text-anchor: middle; fill: #728c80" x="267.03" y="414.685656" transform="rotate(-0 267.03 414.685656)">2</text>
     </g>
    </g>
    <g id="xtick_5">
     <g id="line2d_9">
      <path d="M 331.272 396.288
L 331.272 50.688
" clip-path="url(#p576bd2a587)" style="fill: none; stroke: #dce5dd; stroke-width: 0.7; stroke-linecap: square"/>
     </g>
     <g id="line2d_10">
      <g>
       <use xlink:href="#m6ece25698d" x="331.272" y="396.288" style="fill: #728c80; stroke: #728c80; stroke-width: 0.8"/>
      </g>
     </g>
     <g id="text_5">
      <text style="font-size: 15px; font-family: 'DejaVu Sans'; text-anchor: middle; fill: #728c80" x="331.272" y="414.685656" transform="rotate(-0 331.272 414.685656)">3</text>
     </g>
    </g>
    <g id="xtick_6">
     <g id="line2d_11">
      <path d="M 395.514 396.288
L 395.514 50.688
" clip-path="url(#p576bd2a587)" style="fill: none; stroke: #dce5dd; stroke-width: 0.7; stroke-linecap: square"/>
     </g>
     <g id="line2d_12">
      <g>
       <use xlink:href="#m6ece25698d" x="395.514" y="396.288" style="fill: #728c80; stroke: #728c80; stroke-width: 0.8"/>
      </g>
     </g>
     <g id="text_6">
      <text style="font-size: 15px; font-family: 'DejaVu Sans'; text-anchor: middle; fill: #728c80" x="395.514" y="414.685656" transform="rotate(-0 395.514 414.685656)">4</text>
     </g>
    </g>
    <g id="xtick_7">
     <g id="line2d_13">
      <path d="M 459.756 396.288
L 459.756 50.688
" clip-path="url(#p576bd2a587)" style="fill: none; stroke: #dce5dd; stroke-width: 0.7; stroke-linecap: square"/>
     </g>
     <g id="line2d_14">
      <g>
       <use xlink:href="#m6ece25698d" x="459.756" y="396.288" style="fill: #728c80; stroke: #728c80; stroke-width: 0.8"/>
      </g>
     </g>
     <g id="text_7">
      <text style="font-size: 15px; font-family: 'DejaVu Sans'; text-anchor: middle; fill: #728c80" x="459.756" y="414.685656" transform="rotate(-0 459.756 414.685656)">5</text>
     </g>
    </g>
    <g id="xtick_8">
     <g id="line2d_15">
      <path d="M 523.998 396.288
L 523.998 50.688
" clip-path="url(#p576bd2a587)" style="fill: none; stroke: #dce5dd; stroke-width: 0.7; stroke-linecap: square"/>
     </g>
     <g id="line2d_16">
      <g>
       <use xlink:href="#m6ece25698d" x="523.998" y="396.288" style="fill: #728c80; stroke: #728c80; stroke-width: 0.8"/>
      </g>
     </g>
     <g id="text_8">
      <text style="font-size: 15px; font-family: 'DejaVu Sans'; text-anchor: middle; fill: #728c80" x="523.998" y="414.685656" transform="rotate(-0 523.998 414.685656)">6</text>
     </g>
    </g>
    <g id="xtick_9">
     <g id="line2d_17">
      <path d="M 588.24 396.288
L 588.24 50.688
" clip-path="url(#p576bd2a587)" style="fill: none; stroke: #dce5dd; stroke-width: 0.7; stroke-linecap: square"/>
     </g>
     <g id="line2d_18">
      <g>
       <use xlink:href="#m6ece25698d" x="588.24" y="396.288" style="fill: #728c80; stroke: #728c80; stroke-width: 0.8"/>
      </g>
     </g>
     <g id="text_9">
      <text style="font-size: 15px; font-family: 'DejaVu Sans'; text-anchor: middle; fill: #728c80" x="588.24" y="414.685656" transform="rotate(-0 588.24 414.685656)">7</text>
     </g>
    </g>
    <g id="text_10">
     <text style="font-size: 19px; font-family: 'DejaVu Sans'; text-anchor: middle; fill: #153f36" x="331.272" y="436.242219" transform="rotate(-0 331.272 436.242219)">x</text>
    </g>
   </g>
   <g id="matplotlib.axis_2">
    <g id="ytick_1">
     <g id="line2d_19">
      <path d="M 74.304 372.724364
L 588.24 372.724364
" clip-path="url(#p576bd2a587)" style="fill: none; stroke: #dce5dd; stroke-width: 0.7; stroke-linecap: square"/>
     </g>
     <g id="line2d_20">
      <defs>
       <path id="m8292c4cd17" d="M 0 0
L -3.5 0
" style="stroke: #728c80; stroke-width: 0.8"/>
      </defs>
      <g>
       <use xlink:href="#m8292c4cd17" x="74.304" y="372.724364" style="fill: #728c80; stroke: #728c80; stroke-width: 0.8"/>
      </g>
     </g>
     <g id="text_11">
      <text style="font-size: 15px; font-family: 'DejaVu Sans'; text-anchor: end; fill: #728c80" x="67.304" y="378.423192" transform="rotate(-0 67.304 378.423192)">−2.5</text>
     </g>
    </g>
    <g id="ytick_2">
     <g id="line2d_21">
      <path d="M 74.304 333.451636
L 588.24 333.451636
" clip-path="url(#p576bd2a587)" style="fill: none; stroke: #dce5dd; stroke-width: 0.7; stroke-linecap: square"/>
     </g>
     <g id="line2d_22">
      <g>
       <use xlink:href="#m8292c4cd17" x="74.304" y="333.451636" style="fill: #728c80; stroke: #728c80; stroke-width: 0.8"/>
      </g>
     </g>
     <g id="text_12">
      <text style="font-size: 15px; font-family: 'DejaVu Sans'; text-anchor: end; fill: #728c80" x="67.304" y="339.150464" transform="rotate(-0 67.304 339.150464)">0.0</text>
     </g>
    </g>
    <g id="ytick_3">
     <g id="line2d_23">
      <path d="M 74.304 294.178909
L 588.24 294.178909
" clip-path="url(#p576bd2a587)" style="fill: none; stroke: #dce5dd; stroke-width: 0.7; stroke-linecap: square"/>
     </g>
     <g id="line2d_24">
      <g>
       <use xlink:href="#m8292c4cd17" x="74.304" y="294.178909" style="fill: #728c80; stroke: #728c80; stroke-width: 0.8"/>
      </g>
     </g>
     <g id="text_13">
      <text style="font-size: 15px; font-family: 'DejaVu Sans'; text-anchor: end; fill: #728c80" x="67.304" y="299.877737" transform="rotate(-0 67.304 299.877737)">2.5</text>
     </g>
    </g>
    <g id="ytick_4">
     <g id="line2d_25">
      <path d="M 74.304 254.906182
L 588.24 254.906182
" clip-path="url(#p576bd2a587)" style="fill: none; stroke: #dce5dd; stroke-width: 0.7; stroke-linecap: square"/>
     </g>
     <g id="line2d_26">
      <g>
       <use xlink:href="#m8292c4cd17" x="74.304" y="254.906182" style="fill: #728c80; stroke: #728c80; stroke-width: 0.8"/>
      </g>
     </g>
     <g id="text_14">
      <text style="font-size: 15px; font-family: 'DejaVu Sans'; text-anchor: end; fill: #728c80" x="67.304" y="260.60501" transform="rotate(-0 67.304 260.60501)">5.0</text>
     </g>
    </g>
    <g id="ytick_5">
     <g id="line2d_27">
      <path d="M 74.304 215.633455
L 588.24 215.633455
" clip-path="url(#p576bd2a587)" style="fill: none; stroke: #dce5dd; stroke-width: 0.7; stroke-linecap: square"/>
     </g>
     <g id="line2d_28">
      <g>
       <use xlink:href="#m8292c4cd17" x="74.304" y="215.633455" style="fill: #728c80; stroke: #728c80; stroke-width: 0.8"/>
      </g>
     </g>
     <g id="text_15">
      <text style="font-size: 15px; font-family: 'DejaVu Sans'; text-anchor: end; fill: #728c80" x="67.304" y="221.332283" transform="rotate(-0 67.304 221.332283)">7.5</text>
     </g>
    </g>
    <g id="ytick_6">
     <g id="line2d_29">
      <path d="M 74.304 176.360727
L 588.24 176.360727
" clip-path="url(#p576bd2a587)" style="fill: none; stroke: #dce5dd; stroke-width: 0.7; stroke-linecap: square"/>
     </g>
     <g id="line2d_30">
      <g>
       <use xlink:href="#m8292c4cd17" x="74.304" y="176.360727" style="fill: #728c80; stroke: #728c80; stroke-width: 0.8"/>
      </g>
     </g>
     <g id="text_16">
      <text style="font-size: 15px; font-family: 'DejaVu Sans'; text-anchor: end; fill: #728c80" x="67.304" y="182.059555" transform="rotate(-0 67.304 182.059555)">10.0</text>
     </g>
    </g>
    <g id="ytick_7">
     <g id="line2d_31">
      <path d="M 74.304 137.088
L 588.24 137.088
" clip-path="url(#p576bd2a587)" style="fill: none; stroke: #dce5dd; stroke-width: 0.7; stroke-linecap: square"/>
     </g>
     <g id="line2d_32">
      <g>
       <use xlink:href="#m8292c4cd17" x="74.304" y="137.088" style="fill: #728c80; stroke: #728c80; stroke-width: 0.8"/>
      </g>
     </g>
     <g id="text_17">
      <text style="font-size: 15px; font-family: 'DejaVu Sans'; text-anchor: end; fill: #728c80" x="67.304" y="142.786828" transform="rotate(-0 67.304 142.786828)">12.5</text>
     </g>
    </g>
    <g id="ytick_8">
     <g id="line2d_33">
      <path d="M 74.304 97.815273
L 588.24 97.815273
" clip-path="url(#p576bd2a587)" style="fill: none; stroke: #dce5dd; stroke-width: 0.7; stroke-linecap: square"/>
     </g>
     <g id="line2d_34">
      <g>
       <use xlink:href="#m8292c4cd17" x="74.304" y="97.815273" style="fill: #728c80; stroke: #728c80; stroke-width: 0.8"/>
      </g>
     </g>
     <g id="text_18">
      <text style="font-size: 15px; font-family: 'DejaVu Sans'; text-anchor: end; fill: #728c80" x="67.304" y="103.514101" transform="rotate(-0 67.304 103.514101)">15.0</text>
     </g>
    </g>
    <g id="ytick_9">
     <g id="line2d_35">
      <path d="M 74.304 58.542545
L 588.24 58.542545
" clip-path="url(#p576bd2a587)" style="fill: none; stroke: #dce5dd; stroke-width: 0.7; stroke-linecap: square"/>
     </g>
     <g id="line2d_36">
      <g>
       <use xlink:href="#m8292c4cd17" x="74.304" y="58.542545" style="fill: #728c80; stroke: #728c80; stroke-width: 0.8"/>
      </g>
     </g>
     <g id="text_19">
      <text style="font-size: 15px; font-family: 'DejaVu Sans'; text-anchor: end; fill: #728c80" x="67.304" y="64.241374" transform="rotate(-0 67.304 64.241374)">17.5</text>
     </g>
    </g>
    <g id="text_20">
     <text style="font-size: 19px; font-family: 'DejaVu Sans'; text-anchor: middle; fill: #153f36" x="22.928375" y="223.488" transform="rotate(-90 22.928375 223.488)">y</text>
    </g>
   </g>
   <g id="line2d_37">
    <path d="M 74.304 333.451636
L 588.24 333.451636
" clip-path="url(#p576bd2a587)" style="fill: none; stroke: #728c80; stroke-width: 1.5; stroke-linecap: square"/>
   </g>
   <g id="line2d_38">
    <path d="M 138.546 396.288
L 138.546 50.688
" clip-path="url(#p576bd2a587)" style="fill: none; stroke: #728c80; stroke-width: 1.5; stroke-linecap: square"/>
   </g>
   <g id="line2d_39">
    <path d="M 74.304 50.688
L 83.690959 71.011131
L 93.077918 90.663462
L 102.464877 109.644993
L 109.505096 123.44093
L 116.545315 136.859542
L 123.585534 149.900829
L 130.625753 162.564791
L 137.665973 174.851428
L 144.706192 186.760741
L 151.746411 198.292729
L 158.78663 209.447392
L 165.826849 220.22473
L 172.867068 230.624744
L 179.907288 240.647433
L 186.947507 250.292797
L 193.987726 259.560836
L 201.027945 268.451551
L 208.068164 276.964941
L 215.108384 285.101006
L 222.148603 292.859746
L 229.188822 300.241162
L 236.229041 307.245253
L 243.26926 313.872019
L 250.309479 320.12146
L 257.349699 325.993577
L 264.389918 331.488368
L 271.430137 336.605836
L 278.470356 341.345978
L 285.510575 345.708795
L 292.550795 349.694288
L 297.244274 352.141658
L 301.937753 354.421329
L 306.631233 356.533299
L 311.324712 358.47757
L 316.018192 360.254141
L 320.711671 361.863012
L 325.405151 363.304182
L 330.09863 364.577654
L 334.79211 365.683425
L 339.485589 366.621496
L 344.179068 367.391867
L 348.872548 367.994539
L 353.566027 368.42951
L 358.259507 368.696782
L 362.952986 368.796354
L 367.646466 368.728226
L 372.339945 368.492398
L 377.033425 368.08887
L 381.726904 367.517642
L 386.420384 366.778715
L 391.113863 365.872087
L 395.807342 364.79776
L 400.500822 363.555732
L 405.194301 362.146005
L 409.887781 360.568578
L 414.58126 358.823451
L 419.27474 356.910624
L 423.968219 354.830097
L 428.661699 352.581871
L 433.355178 350.165944
L 440.395397 346.227617
L 447.435616 341.911965
L 454.475836 337.218988
L 461.516055 332.148687
L 468.556274 326.701061
L 475.596493 320.87611
L 482.636712 314.673834
L 489.676932 308.094233
L 496.717151 301.137308
L 503.75737 293.803058
L 510.797589 286.091484
L 517.837808 278.002584
L 524.878027 269.53636
L 531.918247 260.692811
L 538.958466 251.471937
L 545.998685 241.873738
L 553.038904 231.898215
L 560.079123 221.545367
L 567.119342 210.815194
L 574.159562 199.707697
L 581.199781 188.222874
L 588.24 176.360727
L 588.24 176.360727
" clip-path="url(#p576bd2a587)" style="fill: none; stroke: #153f36; stroke-width: 3; stroke-linecap: square"/>
   </g>
   <g id="text_21">
    <text style="font-size: 22px; font-family: 'DejaVu Sans'; text-anchor: middle; fill: #153f36" x="331.272" y="35.688" transform="rotate(-0 331.272 35.688)">Zeros connect factors to the graph</text>
   </g>
  </g>
 </g>
 <defs>
  <clipPath id="p576bd2a587">
   <rect x="74.304" y="50.688" width="513.936" height="345.6"/>
  </clipPath>
 </defs>
</svg>
