<?xml version="1.0" encoding="utf-8" standalone="no"?>
<!DOCTYPE svg PUBLIC "-//W3C//DTD SVG 1.1//EN"
  "http://www.w3.org/Graphics/SVG/1.1/DTD/svg11.dtd">
<svg xmlns:xlink="http://www.w3.org/1999/xlink" width="619.2pt" height="460.8pt" viewBox="0 0 619.2 460.8" xmlns="http://www.w3.org/2000/svg" version="1.1">
 <metadata>
  <rdf:RDF xmlns:dc="http://purl.org/dc/elements/1.1/" xmlns:cc="http://creativecommons.org/ns#" xmlns:rdf="http://www.w3.org/1999/02/22-rdf-syntax-ns#">
   <cc:Work>
    <dc:type rdf:resource="http://purl.org/dc/dcmitype/StillImage"/>
    <dc:format>image/svg+xml</dc:format>
    <dc:creator>
     <cc:Agent>
      <dc:title>QuickMaths</dc:title>
     </cc:Agent>
    </dc:creator>
   </cc:Work>
  </rdf:RDF>
 </metadata>
 <defs>
  <style type="text/css">*{stroke-linejoin: round; stroke-linecap: butt}</style>
 </defs>
 <g id="figure_1">
  <g id="patch_1">
   <path d="M 0 460.8
L 619.2 460.8
L 619.2 0
L 0 0
z
" style="fill: #fffdf8"/>
  </g>
  <g id="axes_1">
   <g id="line2d_1">
    <path d="M 177.0912 223.488
L 485.4528 223.488
" clip-path="url(#p576bd2a587)" style="fill: none; stroke: #728c80; stroke-width: 3; stroke-linecap: square"/>
   </g>
   <g id="line2d_2">
    <path d="M 228.4848 223.488
L 434.0592 223.488
" clip-path="url(#p576bd2a587)" style="fill: none; stroke: #bc503b; stroke-width: 8; stroke-linecap: round"/>
   </g>
   <g id="text_1">
    <text style="font-size: 24px; font-family: 'DejaVu Sans'; text-anchor: middle; fill: #153f36" x="331.272" y="77.059071" transform="rotate(-0 331.272 77.059071)">An interval estimates a population value</text>
   </g>
   <g id="PathCollection_1">
    <defs>
     <path id="m49af2a1d05" d="M 0 5
C 1.326016 5 2.597899 4.473168 3.535534 3.535534
C 4.473168 2.597899 5 1.326016 5 0
C 5 -1.326016 4.473168 -2.597899 3.535534 -3.535534
C 2.597899 -4.473168 1.326016 -5 0 -5
C -1.326016 -5 -2.597899 -4.473168 -3.535534 -3.535534
C -4.473168 -2.597899 -5 -1.326016 -5 0
C -5 1.326016 -4.473168 2.597899 -3.535534 3.535534
C -2.597899 4.473168 -1.326016 5 0 5
z
" style="stroke: #153f36"/>
    </defs>
    <g clip-path="url(#p576bd2a587)">
     <use xlink:href="#m49af2a1d05" x="331.272" y="223.488" style="fill: #153f36; stroke: #153f36"/>
    </g>
   </g>
   <g id="text_2">
    <text style="font-size: 20px; font-family: 'DejaVu Sans'; text-anchor: middle; fill: #153f36" x="331.272" y="174.698179" transform="rotate(-0 331.272 174.698179)">estimate</text>
   </g>
   <g id="text_3">
    <text style="font-size: 21px; font-family: 'DejaVu Sans'; text-anchor: middle; fill: #153f36" x="331.272" y="293.465545" transform="rotate(-0 331.272 293.465545)">confidence interval</text>
   </g>
   <g id="text_4">
    <text style="font-size: 17px; font-family: 'DejaVu Sans'; text-anchor: middle; fill: #153f36" x="228.4848" y="252.864652" transform="rotate(-0 228.4848 252.864652)">lower</text>
   </g>
   <g id="text_5">
    <text style="font-size: 17px; font-family: 'DejaVu Sans'; text-anchor: middle; fill: #153f36" x="434.0592" y="252.864652" transform="rotate(-0 434.0592 252.864652)">upper</text>
   </g>
  </g>
 </g>
 <defs>
  <clipPath id="p576bd2a587">
   <rect x="74.304" y="50.688" width="513.936" height="345.6"/>
  </clipPath>
 </defs>
</svg>
